# xmcd
#
# Track frame offsets: 
#        150
#        14188
#        33299
#        40841
#        57607
#        76318
#        93185
#        107022
#        122778
#        132653
#        143631
#        155199
#        179409
#        198492
#        228553
#        249002
#        260417
#        278031
#        286358
#        300523
#
# Disc length: 4153 seconds
#
# Revision: 0
# Processed by: cddbd v1.5.2PL0 Copyright (c) Steve Scherf et al.
# Submitted via: ExactAudioCopy v0.99pb5
#
DISCID=20103714
DTITLE=Mahalia Jackson - Down By The Riverside
DYEAR=2007
DGENRE=Gospel
TTITLE0=Go Tell It On The Mountain
TTITLE1=No Room At The Inn
TTITLE2=Let The Church Roll On
TTITLE3=Oh Little Town Of Bethlehem
TTITLE4=Bless This House
TTITLE5=Just A Little While To Stay Here
TTITLE6=Joy To The World
TTITLE7=Down By The Riverside
TTITLE8=It Don't Cost Very Much
TTITLE9=Jesus Met The Woman At The Well
TTITLE10=I'm Going To Live The Life I Sing About In My Song
TTITLE11=I Will Move On Up A Little Higher
TTITLE12=Take My Hand Precious Lord
TTITLE13=Summertime
TTITLE14=I Wonder As I Wander
TTITLE15=Didn't It Rain?
TTITLE16=God Knows The Reason Why
TTITLE17=By His Word
TTITLE18=O Come All Ye Faithful
TTITLE19=Keep Your Hand On The Pilow
EXTD=
EXTT0=
EXTT1=
EXTT2=
EXTT3=
EXTT4=
EXTT5=
EXTT6=
EXTT7=
EXTT8=
EXTT9=
EXTT10=
EXTT11=
EXTT12=
EXTT13=
EXTT14=
EXTT15=
EXTT16=
EXTT17=
EXTT18=
EXTT19=
PLAYORDER=
